<svg width="386" height="237" viewBox="0 0 386 237" fill="none" xmlns="http://www.w3.org/2000/svg">
<path d="M253.67 49.7525L249.43 49.7525C249.362 49.7525 249.296 49.7272 249.248 49.6821C249.199 49.637 249.172 49.5758 249.172 49.512C249.172 49.4482 249.199 49.387 249.248 49.3419C249.296 49.2968 249.362 49.2715 249.43 49.2715L253.67 49.2715C253.739 49.2715 253.804 49.2968 253.853 49.3419C253.901 49.387 253.929 49.4482 253.929 49.512C253.929 49.5758 253.901 49.637 253.853 49.6821C253.804 49.7272 253.739 49.7525 253.67 49.7525Z" fill="#2E2742"/>
<path d="M196.566 62.9759C196.522 62.9355 201.5 53.0203 201.5 53.0203C201.5 53.0203 225.096 45.8221 230.342 34.1089C231.116 32.3772 231.052 30.0028 222.305 33.8203C222.305 33.8203 240.43 13.2184 239.405 10.7247C238.38 8.23101 226.007 16.957 226.007 16.957C226.007 16.957 235.993 4.47314 234.328 2.78566C234.129 2.56051 233.879 2.37919 233.596 2.25465C233.313 2.13012 233.004 2.06552 232.691 2.06551C232.378 2.06551 232.069 2.13012 231.786 2.25465C231.503 2.37919 231.253 2.56051 231.055 2.78566C231.055 2.78566 231.521 -2.66061 224.838 1.67737C218.155 6.01536 204.989 16.8608 204.989 16.8608C204.989 16.8608 220.218 2.84436 216.904 1.357C213.589 -0.130369 188.602 13.4483 168.219 44.7234L196.566 62.9759Z" fill="#FFB297"/>
<path d="M195.17 52.2169C192.878 52.2087 190.616 51.7402 188.537 50.8436C186.458 49.947 184.612 48.6433 183.124 47.0217C180.422 44.047 179.091 40.1535 177.919 36.7198C177.898 36.659 177.903 36.5929 177.935 36.5361C177.966 36.4792 178.021 36.4363 178.086 36.4168C178.152 36.3973 178.223 36.4027 178.284 36.4319C178.345 36.4612 178.391 36.5118 178.412 36.5726C179.57 39.9659 180.883 43.8103 183.518 46.711C184.986 48.3113 186.815 49.5911 188.875 50.4595C190.934 51.328 193.175 51.7637 195.436 51.7359C195.503 51.7372 195.568 51.7622 195.617 51.8059C195.665 51.8496 195.694 51.9087 195.698 51.9716C195.699 52.0032 195.693 52.0347 195.681 52.0642C195.669 52.0936 195.65 52.1206 195.627 52.1434C195.603 52.1662 195.575 52.1844 195.544 52.197C195.513 52.2097 195.479 52.2164 195.445 52.2169C195.353 52.2169 195.261 52.2169 195.17 52.2169Z" fill="#2E2742"/>
<path d="M212.868 38.9502C212.811 38.9502 212.755 38.9326 212.71 38.9003C212.665 38.8679 212.633 38.8226 212.618 38.7714C212.603 38.7201 212.607 38.6658 212.629 38.6169C212.651 38.568 212.69 38.5272 212.74 38.5009L222.078 33.5202C222.108 33.5045 222.14 33.4943 222.174 33.4903C222.208 33.4862 222.242 33.4884 222.275 33.4967C222.307 33.5049 222.338 33.5192 222.365 33.5385C222.392 33.5578 222.414 33.5818 222.431 33.6092C222.448 33.6366 222.459 33.6669 222.463 33.6982C222.468 33.7296 222.465 33.7614 222.457 33.7919C222.448 33.8224 222.432 33.851 222.412 33.876C222.391 33.9011 222.365 33.922 222.336 33.9378L212.997 38.9184C212.958 38.9391 212.913 38.95 212.868 38.9502Z" fill="#2E2742"/>
<path d="M197.813 43.1057C197.76 43.106 197.709 43.0909 197.666 43.0624C197.638 43.0446 197.614 43.0218 197.596 42.9953C197.577 42.9688 197.565 42.9391 197.559 42.9081C197.553 42.877 197.553 42.8452 197.561 42.8144C197.568 42.7835 197.582 42.7543 197.601 42.7285C199.151 40.4333 201.348 38.5781 203.953 37.365C205.278 36.7606 206.752 36.4947 208.224 36.5948C209.696 36.6949 211.113 37.1573 212.329 37.9345C212.384 37.9728 212.42 38.0297 212.43 38.0929C212.44 38.156 212.422 38.2202 212.381 38.2712C212.34 38.3223 212.279 38.356 212.211 38.3651C212.143 38.3741 212.074 38.3576 212.019 38.3194C210.877 37.5934 209.548 37.1633 208.168 37.0734C206.788 36.9834 205.407 37.2368 204.167 37.8075C201.649 38.9844 199.525 40.7813 198.027 43.0027C198.003 43.035 197.971 43.0612 197.934 43.0791C197.897 43.0971 197.855 43.1062 197.813 43.1057Z" fill="#2E2742"/>
<path d="M195.258 38.0448C195.206 38.0445 195.155 38.0295 195.112 38.0018C195.069 37.9741 195.036 37.9349 195.017 37.8894C194.998 37.844 194.995 37.7944 195.007 37.7471C195.019 37.6998 195.047 37.657 195.085 37.6243C198.078 35.1324 200.334 31.9674 201.636 28.4323C202.938 24.8972 203.243 21.1103 202.521 17.4342C202.509 17.3715 202.524 17.3067 202.563 17.2542C202.602 17.2017 202.662 17.1658 202.729 17.1543C202.797 17.1428 202.866 17.1568 202.923 17.193C202.979 17.2293 203.018 17.2849 203.03 17.3477C203.767 21.1048 203.456 24.9752 202.125 28.5883C200.795 32.2014 198.49 35.4362 195.431 37.9832C195.383 38.0224 195.322 38.0443 195.258 38.0448Z" fill="#2E2742"/>
<path d="M209.735 21.9311C209.699 21.9309 209.663 21.9237 209.63 21.9099C209.597 21.8962 209.567 21.8762 209.543 21.8512C209.497 21.8037 209.473 21.7413 209.477 21.6776C209.481 21.6139 209.511 21.5542 209.562 21.5116C212.318 19.2084 216.423 15.5207 220.393 11.9553C224.363 8.38986 228.482 4.69166 231.251 2.38173C231.276 2.35848 231.305 2.34017 231.338 2.32794C231.37 2.31571 231.405 2.30983 231.441 2.31062C231.476 2.31141 231.51 2.31885 231.542 2.33252C231.574 2.34619 231.603 2.3658 231.627 2.39012C231.65 2.41445 231.668 2.44303 231.679 2.47404C231.691 2.50504 231.695 2.53783 231.692 2.57045C231.689 2.60308 231.679 2.63484 231.663 2.66376C231.646 2.69268 231.624 2.71814 231.596 2.73863C228.838 5.0476 224.729 8.73331 220.756 12.3016C216.783 15.87 212.675 19.5615 209.912 21.8685C209.863 21.9093 209.8 21.9317 209.735 21.9311Z" fill="#2E2742"/>
<path d="M215.86 27.5763C215.81 27.576 215.761 27.5624 215.719 27.5369C215.677 27.5115 215.644 27.4754 215.624 27.4329C215.604 27.3905 215.597 27.3435 215.605 27.2976C215.612 27.2517 215.634 27.2088 215.667 27.1741L225.531 17.004C225.553 16.9785 225.581 16.9574 225.612 16.9421C225.643 16.9268 225.677 16.9175 225.712 16.9148C225.747 16.9122 225.782 16.9162 225.816 16.9267C225.849 16.9372 225.88 16.9539 225.906 16.9758C225.932 16.9977 225.953 17.0243 225.968 17.0541C225.982 17.0838 225.99 17.1161 225.991 17.1488C225.992 17.1815 225.986 17.214 225.973 17.2444C225.96 17.2748 225.94 17.3023 225.915 17.3254L216.051 27.4974C216.027 27.5222 215.997 27.542 215.964 27.5556C215.931 27.5692 215.896 27.5763 215.86 27.5763Z" fill="#2E2742"/>
<path d="M202.962 17.8189C202.928 17.8191 202.894 17.813 202.863 17.8007C202.831 17.7885 202.803 17.7705 202.779 17.7477C202.755 17.7254 202.736 17.6988 202.723 17.6696C202.71 17.6404 202.703 17.609 202.703 17.5774C202.703 17.5458 202.71 17.5144 202.723 17.4852C202.736 17.456 202.755 17.4295 202.779 17.4071C204.066 16.2209 205.591 14.7701 207.066 13.3664C208.556 11.9473 210.099 10.4802 211.4 9.28047C211.424 9.25823 211.453 9.24067 211.484 9.22873C211.516 9.2168 211.55 9.21076 211.583 9.21094C211.617 9.21112 211.651 9.21752 211.682 9.22979C211.714 9.24206 211.742 9.25992 211.766 9.2824C211.79 9.30489 211.809 9.33157 211.822 9.36085C211.835 9.39014 211.841 9.42148 211.841 9.4531C211.841 9.48473 211.834 9.51603 211.821 9.54518C211.807 9.57433 211.788 9.60075 211.764 9.62298C210.465 10.8198 208.926 12.2851 207.435 13.7032C205.945 15.1213 204.437 16.5605 203.143 17.7496C203.095 17.7941 203.03 17.8189 202.962 17.8189Z" fill="#2E2742"/>
<path d="M203.835 63.6643C203.835 63.6643 184.229 95.0279 177.581 99.7228L115.443 144.469L115.443 144.478L115.433 144.478C112.753 140.414 110.896 135.927 109.952 131.24C100.553 87.0427 157.416 45.2983 164.291 40.4303C164.737 40.1128 164.975 39.9492 164.975 39.9492L178.013 47.9056L203.835 63.6643Z" fill="#BDAAFF"/>
<path d="M238.76 76.1236L201.731 161.055C190.322 163.417 178.665 164.592 166.976 164.557C152.279 164.557 133.886 161.583 122.903 152.503C119.995 150.193 117.477 147.488 115.438 144.479L115.448 144.479L115.448 144.469L177.586 99.7232C179.964 98.258 219.816 74.0619 238.76 76.1236Z" fill="#BDAAFF"/>
<path d="M238.737 76.1217C246.058 76.9202 252.243 77.8534 257.154 78.7289C265.345 80.1816 269.895 81.4227 269.895 81.4227C269.895 81.4227 288.986 82.9909 294.735 80.8262C295.512 80.5453 296.272 80.2241 297.01 79.8642C310.609 73.5915 337.395 54.9253 363.087 77.1511L338.904 178.34L339.163 240.716L204.854 240.716L201.711 161.051L238.737 76.1217Z" fill="#BDAAFF"/>
<path d="M203.21 145.957C202.197 151.171 202.114 155.761 201.721 161.052C190.311 163.414 178.655 164.589 166.966 164.554C152.269 164.554 133.876 161.579 122.893 152.499C119.981 150.195 117.467 147.489 115.438 144.475L115.438 144.466L131.734 132.729C135.974 144.245 146.108 153.923 158.62 157.665C166.478 159.886 174.855 159.963 182.758 157.887C190.662 155.812 197.759 151.672 203.21 145.957Z" fill="#8E62F9"/>
<path d="M178.013 47.9056C175.345 53.4279 168.522 58.6712 164.488 62.962C158.046 69.812 151.294 76.4118 145.358 83.6658C133.666 97.9603 125.387 115.695 131.739 132.732L115.442 144.469C112.746 140.414 110.885 135.928 109.952 131.24C100.553 87.0427 157.416 45.2983 164.291 40.4303C164.737 40.1128 164.975 39.9492 164.975 39.9492L178.013 47.9056Z" fill="#856CDC"/>
<path d="M248.476 240.717C253.507 239.168 258.894 235.478 261.506 230.777L259.285 204.171C258.211 206.352 256.631 208.284 254.66 209.831C252.689 211.378 250.375 212.5 247.884 213.118C239.806 215.261 216.293 200.592 198.41 214.521C190.877 220.39 188.419 231.341 189.27 240.716L248.476 240.717Z" fill="#FBAF97"/>
<path d="M189.144 240.257C189.109 240.259 189.074 240.254 189.04 240.243C189.007 240.231 188.976 240.214 188.951 240.191C188.925 240.169 188.904 240.142 188.89 240.112C188.875 240.081 188.868 240.049 188.867 240.016C188.867 239.952 188.895 239.891 188.943 239.846C188.992 239.801 189.057 239.776 189.126 239.776C189.132 239.775 189.138 239.775 189.144 239.776C191.063 239.776 192.484 238.171 193.12 236.794C193.857 235.195 194.044 233.37 194.625 231.677C195.532 229.045 197.36 226.771 199.817 225.218C203.203 223.083 207.441 222.531 211.179 222.043C211.247 222.037 211.314 222.054 211.368 222.092C211.423 222.13 211.459 222.186 211.471 222.248C211.48 222.311 211.462 222.376 211.421 222.426C211.38 222.477 211.318 222.511 211.251 222.521C207.568 223.002 203.392 223.544 200.107 225.616C197.746 227.109 195.989 229.295 195.117 231.824C194.542 233.499 194.362 235.317 193.596 236.983C192.901 238.493 191.316 240.257 189.144 240.257Z" fill="#C76F50"/>
<path d="M201.124 240.257C201.053 240.258 200.985 240.233 200.934 240.188C200.883 240.143 200.854 240.081 200.852 240.016C200.852 239.952 200.88 239.891 200.928 239.846C200.976 239.801 201.042 239.776 201.11 239.776L201.124 239.776C201.725 239.707 202.294 239.482 202.765 239.127C203.236 238.771 203.59 238.3 203.786 237.766C204.288 236.68 204.422 235.411 204.82 234.251C205.451 232.423 206.721 230.844 208.427 229.765C210.775 228.285 213.701 227.903 216.286 227.566C216.354 227.559 216.422 227.576 216.476 227.614C216.531 227.652 216.567 227.709 216.578 227.771C216.582 227.802 216.581 227.834 216.572 227.865C216.564 227.896 216.549 227.924 216.529 227.95C216.508 227.975 216.483 227.996 216.454 228.012C216.424 228.028 216.392 228.039 216.358 228.043C213.832 228.372 210.969 228.746 208.72 230.16C207.11 231.178 205.912 232.669 205.317 234.393C204.916 235.558 204.8 236.798 204.266 237.953C204.031 238.574 203.61 239.121 203.054 239.529C202.498 239.937 201.828 240.189 201.124 240.257Z" fill="#C76F50"/>
<path d="M217.42 238.603C217.387 238.594 217.358 238.578 217.332 238.557C217.306 238.537 217.285 238.512 217.27 238.484C217.255 238.455 217.245 238.425 217.243 238.393C217.24 238.362 217.245 238.33 217.255 238.3C217.545 237.482 217.676 236.557 217.967 235.709C218.515 234.119 219.62 232.744 221.105 231.805C223.146 230.519 225.687 230.187 227.93 229.896C227.997 229.89 228.064 229.907 228.118 229.945C228.172 229.983 228.209 230.038 228.222 230.1C228.231 230.163 228.213 230.227 228.172 230.278C228.131 230.33 228.069 230.364 228.001 230.373C225.816 230.661 223.34 230.98 221.397 232.201C220.007 233.08 218.973 234.367 218.461 235.857C218.175 236.695 218.055 237.588 217.749 238.454C217.722 238.511 217.674 238.558 217.614 238.585C217.553 238.612 217.485 238.619 217.42 238.603Z" fill="#C76F50"/>
<path d="M151.212 128.334C151.155 128.334 151.1 128.317 151.055 128.285C151.009 128.253 150.977 128.208 150.962 128.156C150.947 128.105 150.951 128.051 150.972 128.002C150.994 127.953 151.032 127.913 151.081 127.886C164.797 120.466 177.147 99.878 177.27 99.6702C177.287 99.6425 177.309 99.6182 177.335 99.5984C177.362 99.5787 177.392 99.564 177.425 99.5553C177.458 99.5465 177.492 99.5439 177.526 99.5474C177.559 99.551 177.592 99.5606 177.622 99.5759C177.652 99.5912 177.678 99.6118 177.699 99.6365C177.72 99.6612 177.736 99.6896 177.745 99.7199C177.755 99.7503 177.758 99.7821 177.754 99.8135C177.75 99.8449 177.74 99.8754 177.723 99.903C177.599 100.112 165.18 120.817 151.341 128.302C151.302 128.323 151.257 128.334 151.212 128.334Z" fill="#2E2742"/>
<path d="M267.206 138.855C266.896 138.795 268.113 142.992 252.295 77.5024C252.28 77.4401 252.293 77.3749 252.329 77.321C252.366 77.2671 252.424 77.2291 252.491 77.2152C252.558 77.2013 252.628 77.2126 252.686 77.2468C252.744 77.281 252.785 77.3353 252.8 77.3975L267.39 138.052C270.96 133.531 301.694 94.1818 306.54 74.4661C306.547 74.4344 306.56 74.4043 306.58 74.3775C306.599 74.3508 306.624 74.3279 306.653 74.3103C306.682 74.2927 306.715 74.2808 306.749 74.2752C306.783 74.2696 306.818 74.2704 306.852 74.2776C306.886 74.2848 306.918 74.2983 306.946 74.3173C306.974 74.3362 306.997 74.3602 307.015 74.3879C307.033 74.4155 307.045 74.4462 307.05 74.4781C307.055 74.5101 307.053 74.5426 307.044 74.5738C301.899 95.5076 267.812 138.333 267.468 138.763C267.439 138.8 267.398 138.829 267.352 138.845C267.305 138.861 267.255 138.865 267.206 138.855Z" fill="#2E2742"/>
<path d="M297.027 79.858C290.887 99.8306 269.196 128.731 269.196 128.731L257.172 78.7285C265.365 80.1764 269.915 81.4223 269.915 81.4223C269.915 81.4223 289.005 82.9972 294.752 80.8335C295.527 80.5445 296.287 80.2189 297.027 79.858Z" fill="#16131C"/>
<path d="M198.135 72.7556C198.079 72.7555 198.024 72.7382 197.979 72.7065L158.572 44.766C158.517 44.7277 158.481 44.6707 158.471 44.6076C158.462 44.5444 158.479 44.4803 158.52 44.4293C158.562 44.3782 158.623 44.3444 158.691 44.3354C158.759 44.3264 158.828 44.3428 158.882 44.3811L198.292 72.3178C198.335 72.3483 198.367 72.3906 198.382 72.4388C198.398 72.487 198.397 72.5387 198.38 72.5864C198.363 72.6341 198.33 72.6756 198.286 72.7049C198.242 72.7342 198.189 72.7499 198.134 72.7498L198.135 72.7556Z" fill="#2E2742"/>
<path d="M290.038 68.084L289.387 91.8116C279.415 100.501 270.999 99.4187 263.336 93.5626L263.336 77.7913L290.038 68.084Z" fill="#FFB297"/>
<path d="M263.33 77.7924C263.284 77.7939 263.238 77.7994 263.192 77.8088C261.995 77.9194 253.374 78.461 252.024 69.5166C250.587 59.8892 252.606 29.9062 252.606 29.9062L290.763 24.1924L299.144 51.3229L290.027 68.0812L263.33 77.7924Z" fill="#FFB297"/>
<path d="M311.343 55.4282C310.618 57.2023 309.677 58.8936 308.54 60.4694C304.206 66.6272 297.6 71.0967 289.968 73.0351L290.05 69.1291C293.701 66.012 301.602 60.0462 301.767 58.6896C301.974 57.0349 302.026 54.899 300.806 53.6676C298.695 51.551 294.828 51.8108 292.274 53.456C289.719 55.1011 288.168 57.7564 286.721 60.3059C286.328 48.9429 293.856 35.1458 284.89 26.1216C283.08 24.3023 280.857 29.383 278.561 30.6433C277.284 31.3997 275.883 31.9585 274.414 32.298C272.929 32.6319 271.366 32.4684 269.998 31.8363C269.086 31.3009 268.234 30.6821 267.454 29.989C266.661 29.2952 265.634 28.8772 264.548 28.8057C263.909 28.9322 263.308 29.1861 262.785 29.5498C262.262 29.9136 261.83 30.3785 261.518 30.9127C260.336 32.9352 258.524 34.5785 256.321 35.6273C254.118 36.6761 251.626 37.0817 249.171 36.7909C245.942 36.3084 243.024 34.7194 240.99 32.3365C238.986 29.9474 237.839 27.0326 237.712 24.004C237.557 20.9543 238.467 17.7217 240.876 15.6628C242.123 14.6947 243.591 14.0043 245.168 13.6442C246.745 13.2841 248.389 13.2637 249.976 13.5848C250.388 13.6441 250.796 13.7277 251.196 13.8349C252.809 14.2486 254.361 14.9028 256.005 15.1914C256.819 15.3861 257.67 15.4112 258.496 15.2648C259.322 15.1185 260.103 14.8043 260.783 14.3448C268.87 7.94604 278.829 5.47352 289.15 7.77288C294.315 8.96361 299.115 11.2487 303.174 14.4499C307.234 17.6511 310.443 21.6818 312.553 26.2274C316.752 35.4633 315.077 46.0182 311.343 55.4282Z" fill="#2E2742"/>
<path d="M308.892 58.5831C308.799 59.218 308.685 59.8434 308.54 60.4687C304.206 66.6265 297.6 71.096 289.968 73.0344L290.05 69.1284C293.701 66.0112 301.602 60.0454 301.767 58.6889C301.974 57.0341 302.026 54.8983 300.806 53.6668C298.695 51.5503 294.828 51.8101 292.274 53.4552C289.719 55.1004 288.168 57.7557 286.721 60.3052C286.328 48.9421 293.856 35.1451 284.89 26.1208C283.08 24.3015 280.857 29.3822 278.561 30.6426C277.284 31.3989 275.883 31.9577 274.414 32.2973C272.929 32.6312 271.366 32.4677 269.998 31.8355C269.086 31.3002 268.234 30.6813 267.454 29.9883C266.661 29.2944 265.634 28.8765 264.548 28.805C263.909 28.9315 263.308 29.1853 262.785 29.5491C262.262 29.9128 261.83 30.3778 261.518 30.9119C260.336 32.9345 258.524 34.5777 256.321 35.6266C254.118 36.6754 251.626 37.081 249.171 36.7902C245.942 36.3076 243.024 34.7187 240.99 32.3358C238.986 29.9467 237.839 27.0318 237.712 24.0033C237.557 20.9535 238.467 17.7209 240.876 15.6621C242.123 14.694 243.591 14.0036 245.168 13.6435C246.745 13.2833 248.389 13.263 249.976 13.584C248.737 14.5313 247.856 15.8225 247.462 17.2688C246.666 20.5013 249.013 23.9071 252.219 25.38C255.425 26.8529 259.22 26.7557 262.705 26.0342C266.191 25.3126 269.53 24.0514 272.995 23.2721C280.217 21.6717 287.798 22.2547 294.639 24.9365C299.025 26.6682 303.151 29.3822 305.426 33.269C307.266 36.415 307.773 40.0622 308.249 43.6122C308.923 48.5765 309.595 53.6188 308.892 58.5831Z" fill="#4E4076"/>
<path d="M286.844 60.3515C286.853 57.8303 287.828 55.3947 289.592 53.4813C290.483 52.5419 291.608 51.8209 292.869 51.3818C294.129 50.9427 295.487 50.7991 296.821 50.9636C298.15 51.1664 299.377 51.7516 300.329 52.6367C301.281 53.5218 301.912 54.6624 302.131 55.8981C302.483 58.6506 300.614 61.0201 298.883 63.1367C297.669 64.7535 296.247 66.2267 294.65 67.5238C293.033 68.8274 290.96 69.5375 288.821 69.521L286.844 60.3515Z" fill="#FFB297"/>
<path d="M280.9 74.6738C279.65 76.3426 277.91 77.6409 275.887 78.4134C271.866 80.2343 267.661 81.6791 263.333 82.7264L263.333 77.7929C263.287 77.7944 263.241 77.7999 263.195 77.8093L263.195 77.7929C269.22 77.4908 275.174 76.4419 280.9 74.6738Z" fill="#DC8762"/>
<path d="M278.802 50.9791C277.954 50.2461 276.856 49.8135 275.7 49.7565C274.544 49.6995 273.403 50.0219 272.476 50.6673C272.449 50.6863 272.418 50.7001 272.385 50.7079C272.352 50.7158 272.318 50.7175 272.284 50.713C272.251 50.7085 272.219 50.698 272.189 50.6819C272.16 50.6658 272.135 50.6445 272.114 50.6192C272.094 50.5939 272.079 50.5652 272.071 50.5346C272.062 50.504 272.06 50.4721 272.065 50.4409C272.07 50.4096 272.081 50.3796 272.099 50.3524C272.116 50.3252 272.139 50.3015 272.166 50.2825C273.191 49.5706 274.451 49.2154 275.728 49.2787C277.005 49.342 278.218 49.8197 279.155 50.6288C279.202 50.6731 279.228 50.7324 279.229 50.7943C279.23 50.8563 279.205 50.9161 279.159 50.9613C279.114 51.0066 279.051 51.0338 278.985 51.0372C278.918 51.0407 278.853 51.0193 278.802 50.9791Z" fill="#2E2742"/>
<path d="M260.301 52.2197C260.008 51.6961 259.589 51.2427 259.076 50.8952C258.563 50.5477 257.97 50.3154 257.344 50.2166C256.719 50.1178 256.077 50.1552 255.469 50.3258C254.862 50.4964 254.305 50.7956 253.843 51.1999C253.818 51.2217 253.789 51.2387 253.757 51.25C253.726 51.2613 253.692 51.2666 253.658 51.2658C253.624 51.2649 253.59 51.2579 253.559 51.245C253.528 51.2321 253.501 51.2137 253.477 51.1908C253.454 51.1679 253.436 51.1409 253.423 51.1114C253.411 51.0819 253.405 51.0504 253.406 51.0189C253.407 50.9873 253.415 50.9562 253.429 50.9273C253.443 50.8985 253.462 50.8724 253.487 50.8507C254.007 50.3947 254.635 50.0573 255.319 49.8648C256.003 49.6723 256.726 49.63 257.431 49.7413C258.136 49.8527 258.803 50.1145 259.381 50.5063C259.959 50.8981 260.431 51.4092 260.761 51.9994C260.778 52.0276 260.789 52.0587 260.793 52.0909C260.797 52.1231 260.794 52.1557 260.784 52.1868C260.774 52.2179 260.757 52.2468 260.735 52.2718C260.713 52.2967 260.685 52.3173 260.654 52.3321C260.623 52.347 260.59 52.3559 260.555 52.3583C260.52 52.3606 260.485 52.3564 260.452 52.3459C260.419 52.3354 260.389 52.3188 260.363 52.2971C260.337 52.2755 260.316 52.2491 260.301 52.2197Z" fill="#2E2742"/>
<path d="M267.13 63.3292C267.119 63.299 267.115 63.2673 267.118 63.2358C267.121 63.2042 267.131 63.1735 267.146 63.1454C267.162 63.1174 267.183 63.0924 267.209 63.0721C267.235 63.0518 267.266 63.0365 267.298 63.0271C269.384 62.4099 271.243 61.2634 272.666 59.7166C272.71 59.668 272.774 59.6378 272.842 59.6326C272.91 59.6275 272.978 59.6478 273.03 59.6892C273.083 59.7305 273.115 59.7895 273.121 59.8531C273.126 59.9167 273.104 59.9797 273.06 60.0283C271.573 61.6438 269.632 62.8413 267.453 63.486C267.421 63.4955 267.387 63.499 267.353 63.4963C267.319 63.4936 267.286 63.4847 267.256 63.4701C267.226 63.4555 267.2 63.4356 267.178 63.4114C267.156 63.3872 267.14 63.3593 267.13 63.3292Z" fill="#2E2742"/>
<path d="M260.013 38.5242C260.736 38.5569 261.612 38.731 261.842 39.3727C261.897 39.571 261.897 39.7792 261.84 39.9771C261.782 40.1749 261.671 40.3556 261.516 40.5013C261.203 40.7894 260.83 41.0153 260.42 41.1651C258.833 41.8385 255.767 42.6967 254.147 42.3879C253.848 42.3403 253.561 42.2378 253.305 42.0861C253.048 41.9345 252.827 41.7368 252.653 41.5047C250.491 38.3183 258.605 38.4617 260.013 38.5242Z" fill="#2E2742"/>
<path d="M282.73 40.8021C283.38 41.1061 284.103 41.5968 284.032 42.2692C283.996 42.4714 283.904 42.6614 283.766 42.8206C283.627 42.9798 283.446 43.1028 283.241 43.1774C282.829 43.3225 282.39 43.388 281.95 43.3698C280.206 43.3852 277.025 43.01 275.685 42.1192C275.432 41.9625 275.215 41.7605 275.047 41.525C274.878 41.2894 274.762 41.025 274.705 40.7472C274.12 37.0173 281.473 40.2133 282.73 40.8021Z" fill="#2E2742"/>
<path d="M276.077 104.903C276.077 105.379 275.925 105.844 275.641 106.239C275.357 106.635 274.953 106.943 274.481 107.125C274.008 107.307 273.489 107.355 272.987 107.262C272.486 107.169 272.025 106.94 271.663 106.604C271.302 106.268 271.056 105.839 270.956 105.372C270.856 104.906 270.907 104.422 271.103 103.983C271.299 103.543 271.63 103.168 272.055 102.903C272.48 102.639 272.98 102.498 273.491 102.498C274.177 102.5 274.833 102.753 275.318 103.204C275.802 103.655 276.075 104.266 276.077 104.903Z" fill="white"/>
<path d="M274.205 115.151C274.206 115.533 274.084 115.906 273.856 116.224C273.628 116.541 273.304 116.789 272.925 116.935C272.545 117.082 272.128 117.12 271.725 117.045C271.323 116.971 270.953 116.787 270.663 116.517C270.372 116.247 270.175 115.903 270.095 115.528C270.014 115.153 270.056 114.765 270.213 114.412C270.37 114.059 270.636 113.758 270.978 113.546C271.319 113.334 271.721 113.221 272.131 113.221C272.681 113.222 273.208 113.426 273.596 113.787C273.985 114.149 274.204 114.639 274.205 115.151Z" fill="white"/>
<path d="M294.408 62.811C294.356 62.77 294.323 62.7113 294.316 62.6477C294.31 62.5841 294.331 62.5208 294.374 62.4714C295.68 61.0119 297.089 59.3187 296.738 57.3666C296.67 56.9155 296.479 56.488 296.183 56.1246C295.888 55.7613 295.498 55.4742 295.05 55.2905C294.61 55.133 294.125 55.1221 293.678 55.2596C293.231 55.3971 292.849 55.6746 292.597 56.0447C292.565 56.1011 292.51 56.1433 292.444 56.1619C292.378 56.1806 292.307 56.1743 292.247 56.1443C292.186 56.1143 292.141 56.0632 292.121 56.0021C292.101 55.941 292.107 55.875 292.14 55.8187C292.449 55.3425 292.929 54.9834 293.495 54.8047C294.061 54.626 294.677 54.6393 295.234 54.8421C295.766 55.0561 296.23 55.3931 296.583 55.8212C296.935 56.2492 297.164 56.7541 297.248 57.2877C297.63 59.4101 296.169 61.2168 294.772 62.7802C294.723 62.8197 294.661 62.8439 294.596 62.8494C294.53 62.8549 294.465 62.8415 294.408 62.811Z" fill="#2E2742"/>
<path d="M292.024 64.3191C291.531 63.5965 291.287 62.7514 291.324 61.8964C291.361 61.0414 291.677 60.2172 292.23 59.5337C292.473 59.294 292.782 59.121 293.123 59.0334C293.464 58.9459 293.825 58.9472 294.165 59.0373C294.226 59.0601 294.276 59.1036 294.303 59.159C294.331 59.2145 294.335 59.2777 294.315 59.3358C294.294 59.3939 294.25 59.4425 294.193 59.4718C294.135 59.5011 294.067 59.5088 294.004 59.4933C293.231 59.2567 292.176 59.782 291.912 61.2607C291.745 62.2308 291.941 63.2249 292.467 64.0767C292.487 64.104 292.5 64.1346 292.506 64.1668C292.512 64.1989 292.511 64.2319 292.503 64.2638C292.495 64.2956 292.48 64.3256 292.46 64.3519C292.439 64.3782 292.412 64.4003 292.382 64.4168C292.352 64.4333 292.318 64.4439 292.283 64.4479C292.248 64.4519 292.213 64.4492 292.179 64.4401C292.145 64.4309 292.114 64.4155 292.087 64.3947C292.06 64.3739 292.038 64.3482 292.022 64.3191L292.024 64.3191Z" fill="#2E2742"/>
<path d="M201.75 161.297L201.738 161.297C201.704 161.296 201.67 161.288 201.64 161.274C201.609 161.261 201.581 161.241 201.559 161.218C201.536 161.194 201.518 161.167 201.507 161.137C201.496 161.107 201.491 161.076 201.493 161.044C201.52 160.531 204.424 109.573 217.924 92.0808C217.943 92.0536 217.968 92.0303 217.997 92.0122C218.026 91.9942 218.058 91.9818 218.093 91.9758C218.127 91.9698 218.162 91.9704 218.196 91.9774C218.23 91.9844 218.263 91.9978 218.291 92.0167C218.319 92.0356 218.343 92.0597 218.361 92.0874C218.379 92.1152 218.391 92.1461 218.396 92.1783C218.401 92.2104 218.399 92.2431 218.39 92.2745C218.381 92.3059 218.365 92.3352 218.344 92.3608C204.932 109.742 202.036 160.557 202.005 161.069C202.002 161.13 201.974 161.188 201.926 161.23C201.879 161.273 201.816 161.297 201.75 161.297Z" fill="#2E2742"/>
<path d="M383.139 231.645C378.635 234.984 373.153 236.979 367.41 237.369C315.251 241.526 240.396 240.092 240.396 240.092C237.283 240.346 233.898 205.053 237.005 204.784L320.578 190.189L355.467 213.308L383.139 231.645Z" fill="#BDAAFF"/>
<path d="M398.988 193.624C398.037 207.057 394.418 223.118 383.146 231.645L355.475 213.308L320.585 190.189C316.583 166.984 319.416 141.556 325.301 115.147L363.095 77.1455C371.821 85.9639 378.879 99.7061 383.528 110.808C395.58 139.653 400.607 171.967 398.988 193.624Z" fill="#BDAAFF"/>
<path d="M383.135 231.643C381.838 232.64 380.438 233.517 378.957 234.26C377.251 235.119 375.452 235.809 373.591 236.319C371.575 236.857 369.507 237.211 367.417 237.377C315.258 241.533 240.403 240.1 240.403 240.1C238.635 240.244 236.763 228.863 236.07 218.982C236.019 218.309 235.977 217.636 235.945 216.972C236.088 215.658 236.13 214.337 236.07 213.018C238.152 215.155 240.531 217.025 243.142 218.578C248.221 221.291 254.434 222.802 260.05 224.216C286.366 230.878 314.277 229.578 339.745 220.503C345.211 218.556 350.476 216.151 355.474 213.316L383.135 231.643Z" fill="#856CDC"/>
<path d="M398.966 193.63C398.035 206.754 394.439 222.866 383.631 231.247C383.465 231.381 383.29 231.516 383.114 231.641L355.453 213.314C359.667 210.935 363.585 208.131 367.138 204.953C374.873 197.969 380.581 188.771 381.822 178.814C383.972 161.448 372.701 145.141 370.426 127.785C369.215 118.589 371.897 108.544 381.615 106.466C394.9 135.989 400.684 170.639 398.966 193.63Z" fill="#856CDC"/>
<path d="M241.278 240.352C237.331 240.712 234.623 212.442 237.038 207.606C237.315 207.051 237.665 206.753 238.08 206.719L320.283 190.004C316.756 169.312 318.268 145.501 325.039 115.097C325.055 115.035 325.095 114.982 325.152 114.947C325.209 114.912 325.277 114.899 325.344 114.91C325.378 114.916 325.41 114.929 325.439 114.947C325.467 114.965 325.492 114.988 325.51 115.015C325.529 115.042 325.542 115.072 325.548 115.104C325.554 115.135 325.553 115.168 325.545 115.199C318.766 145.653 317.272 169.471 320.835 190.155C320.846 190.216 320.831 190.278 320.793 190.329C320.756 190.38 320.699 190.415 320.634 190.428L238.154 207.193C237.851 207.22 237.637 207.541 237.504 207.809C235.337 212.151 237.576 235.456 240.536 239.373C240.717 239.612 240.983 239.889 241.259 239.872C242.05 239.888 318.157 241.552 367.377 237.134C367.446 237.128 367.514 237.147 367.567 237.188C367.62 237.229 367.654 237.287 367.66 237.351C367.667 237.415 367.646 237.479 367.602 237.528C367.558 237.578 367.495 237.609 367.427 237.615C331.59 240.828 273.948 241.099 241.278 240.352Z" fill="#2E2742"/>
<path d="M357.109 191.236C342.296 185.559 320.865 190.377 320.65 190.427C320.583 190.443 320.512 190.433 320.454 190.4C320.395 190.367 320.352 190.314 320.336 190.252C320.319 190.19 320.33 190.124 320.365 190.069C320.401 190.015 320.458 189.975 320.524 189.96C320.742 189.911 342.334 185.053 357.305 190.79C357.369 190.814 357.419 190.861 357.446 190.92C357.472 190.979 357.472 191.045 357.446 191.104C357.42 191.163 357.37 191.21 357.307 191.235C357.243 191.26 357.172 191.26 357.109 191.236Z" fill="#2E2742"/>
<path d="M276.379 59.4434C274.738 59.4445 273.133 58.9928 271.768 58.1453C270.403 57.2978 269.339 56.0926 268.711 54.6823C268.082 53.272 267.917 51.72 268.237 50.2225C268.557 48.7251 269.347 47.3495 270.507 46.27C271.668 45.1904 273.146 44.4553 274.756 44.1578C276.365 43.8602 278.033 44.0135 279.549 44.5983C281.065 45.1831 282.36 46.1731 283.271 47.443C284.182 48.7129 284.668 50.2056 284.667 51.7323C284.663 53.7762 283.788 55.7354 282.235 57.1806C280.681 58.6259 278.575 59.4395 276.379 59.4434ZM276.379 44.4918C274.84 44.4906 273.336 44.9139 272.057 45.7081C270.777 46.5023 269.779 47.6317 269.189 48.9534C268.6 50.2752 268.444 51.73 268.743 53.1339C269.042 54.5377 269.782 55.8275 270.869 56.8402C271.956 57.8529 273.341 58.5431 274.85 58.8233C276.358 59.1035 277.922 58.9612 279.344 58.4145C280.765 57.8677 281.98 56.941 282.836 55.7516C283.691 54.5622 284.149 53.1635 284.15 51.7323C284.147 49.8145 283.328 47.9759 281.871 46.6188C280.415 45.2617 278.44 44.4969 276.379 44.4918Z" fill="#2E2742"/>
<path d="M257.096 59.4433C255.455 59.4443 253.851 58.9924 252.486 58.1448C251.121 57.2972 250.058 56.092 249.429 54.6817C248.801 53.2713 248.636 51.7193 248.956 50.2219C249.276 48.7245 250.066 47.3491 251.227 46.2696C252.387 45.1902 253.865 44.4552 255.475 44.1577C257.084 43.8602 258.752 44.0136 260.268 44.5984C261.784 45.1832 263.079 46.1731 263.99 47.443C264.901 48.7129 265.387 50.2056 265.385 51.7323C265.381 53.7764 264.507 55.7357 262.953 57.181C261.399 58.6263 259.293 59.4398 257.096 59.4433ZM257.096 44.4917C255.558 44.4908 254.054 44.9143 252.775 45.7086C251.495 46.5028 250.497 47.6323 249.908 48.9541C249.318 50.2759 249.163 51.7307 249.462 53.1344C249.761 54.5382 250.501 55.828 251.588 56.8406C252.675 57.8532 254.06 58.5432 255.569 58.8233C257.077 59.1034 258.641 58.9611 260.062 58.4143C261.484 57.8675 262.699 56.9409 263.555 55.7515C264.41 54.5621 264.867 53.1634 264.868 51.7323C264.866 49.8143 264.047 47.9753 262.59 46.6181C261.133 45.261 259.158 44.4963 257.096 44.4917Z" fill="#2E2742"/>
<path d="M266.426 43.7051C266.046 49.1177 265.567 53.7684 261.286 57.7696C261.038 57.9746 260.825 58.2137 260.655 58.4787C260.571 58.6123 260.526 58.7635 260.524 58.918C260.521 59.0725 260.561 59.225 260.64 59.3609C260.802 59.5213 261.004 59.6408 261.229 59.7082C261.454 59.7755 261.694 59.7884 261.926 59.7457C263.807 59.6692 265.671 59.3652 267.468 58.8413L266.426 43.7051Z" fill="#FBAF97"/>
<path d="M260.425 59.4937C260.321 59.3227 260.266 59.1294 260.266 58.9328C260.266 58.7361 260.321 58.5428 260.425 58.3719C260.604 58.0825 260.833 57.8225 261.102 57.6022C265.307 53.6702 265.792 49.0696 266.169 43.6906C266.171 43.659 266.18 43.6282 266.194 43.5997C266.209 43.5713 266.23 43.5458 266.256 43.525C266.281 43.5041 266.311 43.4882 266.343 43.4781C266.375 43.4681 266.409 43.4641 266.443 43.4665C266.477 43.4684 266.51 43.4766 266.541 43.4905C266.572 43.5044 266.599 43.5239 266.621 43.5476C266.644 43.5714 266.661 43.5991 266.672 43.6291C266.683 43.6591 266.687 43.6908 266.685 43.7224C266.3 49.2206 265.804 53.8905 261.469 57.9409C261.243 58.1313 261.046 58.3502 260.885 58.5912C260.823 58.6874 260.788 58.7967 260.783 58.9089C260.778 59.0211 260.804 59.1325 260.858 59.2329C261.005 59.4446 261.335 59.535 261.915 59.508C263.776 59.4332 265.618 59.1328 267.396 58.6143C267.46 58.5977 267.529 58.6051 267.588 58.6349C267.647 58.6648 267.691 58.7148 267.711 58.7744C267.731 58.834 267.726 58.8984 267.695 58.9542C267.665 59.0099 267.613 59.0527 267.55 59.0732C265.731 59.604 263.846 59.9119 261.942 59.9891C261.665 60.0381 261.378 60.0181 261.112 59.9311C260.845 59.8441 260.609 59.6932 260.425 59.4937Z" fill="#2E2742"/>
<path d="M268.774 49.2601C267.467 48.8028 266.027 48.8001 264.718 49.2524C264.687 49.2647 264.653 49.2711 264.619 49.2713C264.586 49.2714 264.552 49.2654 264.52 49.2535C264.489 49.2415 264.46 49.224 264.436 49.2017C264.412 49.1795 264.393 49.1531 264.38 49.124C264.366 49.0949 264.36 49.0636 264.359 49.032C264.359 49.0004 264.366 48.9691 264.379 48.9399C264.391 48.9106 264.41 48.884 264.434 48.8615C264.458 48.8391 264.486 48.8212 264.518 48.8089C265.939 48.3098 267.506 48.3071 268.929 48.8012C268.994 48.8203 269.049 48.8629 269.081 48.9194C269.112 48.976 269.119 49.0419 269.098 49.1028C269.077 49.1637 269.032 49.2145 268.971 49.244C268.91 49.2735 268.839 49.2792 268.774 49.2601Z" fill="#2E2742"/>
<path d="M298.009 51.1248L284.049 50.4033C283.981 50.3997 283.916 50.3709 283.871 50.3233C283.825 50.2757 283.801 50.2131 283.805 50.1493C283.809 50.0855 283.84 50.0258 283.891 49.9832C283.942 49.9406 284.009 49.9187 284.078 49.9223L298.021 50.6438C298.09 50.6453 298.155 50.6721 298.202 50.7183C298.25 50.7645 298.275 50.8263 298.274 50.8901C298.272 50.9539 298.243 51.0145 298.194 51.0585C298.144 51.1025 298.078 51.1264 298.009 51.1248Z" fill="#2E2742"/>
<path d="M264.388 234.076L264.388 236.717L182.438 236.717L182.438 229.7L259.682 229.7C260.3 229.7 260.912 229.813 261.483 230.032C262.054 230.252 262.573 230.574 263.01 230.981C263.447 231.387 263.793 231.87 264.03 232.401C264.266 232.932 264.388 233.501 264.388 234.076Z" fill="#4E4076"/>
<path d="M187.869 232.399C188.126 232.846 188.254 233.347 188.24 233.854C188.227 234.36 188.073 234.855 187.792 235.29C187.512 235.724 187.116 236.084 186.642 236.334C186.168 236.584 185.633 236.715 185.088 236.715L53.3227 236.715C52.6678 236.689 52.0316 236.505 51.4776 236.179C50.9236 235.853 50.4712 235.398 50.1656 234.858L5.21588 156.612C4.95918 156.165 4.8313 155.664 4.84471 155.157C4.85811 154.65 5.01235 154.156 5.29237 153.721C5.5724 153.286 5.96867 152.927 6.44257 152.677C6.91647 152.427 7.45182 152.296 7.99648 152.296L139.762 152.296C140.417 152.322 141.053 152.506 141.607 152.832C142.161 153.158 142.613 153.613 142.919 154.153L187.869 232.399Z" fill="#4E4076"/>
<path d="M183.663 232.401C183.919 232.848 184.047 233.349 184.034 233.856C184.02 234.363 183.866 234.857 183.586 235.292C183.306 235.727 182.909 236.086 182.435 236.336C181.961 236.586 181.426 236.717 180.881 236.717L49.1195 236.717C48.4647 236.691 47.8286 236.506 47.2747 236.18C46.7207 235.855 46.2683 235.399 45.9625 234.86L1.01276 156.614C0.756057 156.167 0.628176 155.666 0.64158 155.159C0.654985 154.652 0.809193 154.158 1.08922 153.723C1.36924 153.288 1.76552 152.929 2.23941 152.679C2.71331 152.429 3.24869 152.298 3.79335 152.298L135.559 152.298C136.214 152.323 136.85 152.508 137.404 152.834C137.959 153.16 138.411 153.615 138.717 154.155L183.663 232.401Z" fill="#725FB5"/>
<path d="M91.68 191.32C93.4482 195.041 91.56 198.062 87.4651 198.062C83.3702 198.062 78.6125 195.041 76.8442 191.32C75.076 187.6 76.9569 184.579 81.0581 184.579C85.1592 184.579 89.9117 187.6 91.68 191.32Z" fill="white"/>
<path d="M145.318 224.115L40.0703 224.115L40.0703 225.077L145.318 225.077L145.318 224.115Z" fill="#FFD5D2"/>
</svg>
