<svg width="106" height="30" viewBox="0 0 106 30" fill="none" xmlns="http://www.w3.org/2000/svg">
<g clip-path="url(#clip0_9988_14140)">
<path d="M40.1809 8.72642C38.2335 8.72642 36.7111 9.85944 36.7111 11.4881C36.7111 13.1169 37.9857 13.648 39.579 13.9666L41.5972 14.2853C44.2527 14.7102 46.0938 15.9494 46.0938 18.8528C46.0938 21.8977 43.6154 23.6681 40.4288 23.6681C37.5608 23.6681 34.8699 21.9686 34.4804 18.6757C34.445 18.3925 34.6575 18.1446 34.9407 18.1446H36.1445C36.357 18.1446 36.5694 18.3217 36.6048 18.5341C36.8527 20.8709 38.6584 21.7915 40.4288 21.7915C42.3761 21.7915 43.8986 20.8355 43.8986 18.8882C43.8986 17.1532 42.6594 16.5513 41.0307 16.2327L39.0479 15.8786C36.2862 15.4183 34.5512 14.0728 34.5512 11.559C34.5512 8.6202 37.1005 6.81445 40.1809 6.81445C42.624 6.81445 45.3503 8.19532 45.8814 11.4881C45.9168 11.7714 45.7044 12.0192 45.4211 12.0192H44.1465C43.934 12.0192 43.7216 11.8422 43.6862 11.6298C43.3321 9.54077 41.7388 8.72642 40.1809 8.72642Z" fill="#101010"/>
<path d="M54.0248 10.5322C56.999 10.5322 59.088 12.1255 59.8315 14.7102C59.9023 14.9935 59.6899 15.3121 59.3712 15.3121H57.9904C57.7779 15.3121 57.6363 15.1705 57.5655 14.9935C57.0344 13.5064 55.866 12.692 54.0248 12.692C51.5463 12.692 50.1655 14.7102 50.1655 17.1533C50.1655 19.561 51.5463 21.6145 54.0248 21.6145C55.8306 21.6145 57.0344 20.7648 57.5655 19.3131C57.6363 19.1361 57.8133 18.9944 57.9904 18.9944H59.3712C59.6899 18.9944 59.9023 19.2777 59.7961 19.5964C59.0172 22.2873 56.9636 23.7744 53.9894 23.7744C50.1655 23.7744 47.7578 20.8356 47.7578 17.1887C47.7932 13.5064 50.2363 10.5322 54.0248 10.5322Z" fill="#101010"/>
<path d="M62.0931 21.5783H65.0673V13.2932H62.4118C62.1639 13.2932 61.9515 13.0807 61.9515 12.8329V11.6644C61.9515 11.4166 62.1639 11.2042 62.4118 11.2042H66.0233C66.7668 11.2042 67.4041 11.8415 67.4041 12.585V12.9037C68.0768 11.3104 69.4931 10.9209 71.6883 10.9209C72.5381 10.9209 73.1046 11.0625 73.4233 11.1687C73.6003 11.2396 73.7065 11.4166 73.7065 11.5936V12.8329C73.7065 13.1515 73.4233 13.364 73.1046 13.2577C72.7151 13.1161 72.1486 13.0099 71.4405 13.0099C69.1036 13.0099 67.4395 14.6032 67.4395 17.4003V21.5783H71.2635C71.5113 21.5783 71.7237 21.7908 71.7237 22.0386V23.207C71.7237 23.4549 71.5113 23.6673 71.2635 23.6673H62.0931C61.8453 23.6673 61.6328 23.4549 61.6328 23.207V22.0386C61.6328 21.7908 61.8453 21.5783 62.0931 21.5783Z" fill="#101010"/>
<path d="M75.4844 17.1179C75.4844 13.5064 77.892 10.5322 81.7868 10.5322C85.6815 10.5322 88.0892 13.471 88.0892 17.1179C88.0892 20.7294 85.6815 23.7035 81.7868 23.7035C77.8566 23.6681 75.4844 20.7294 75.4844 17.1179ZM81.7514 21.5437C84.2653 21.5437 85.6815 19.5255 85.6815 17.0825C85.6815 14.6748 84.2298 12.6212 81.7514 12.6212C79.2375 12.6212 77.8212 14.6394 77.8212 17.0825C77.8212 19.5255 79.2729 21.5437 81.7514 21.5437Z" fill="#101010"/>
<path d="M93.2545 21.685H96.866C97.1138 21.685 97.3263 21.8975 97.3263 22.1453V23.2429C97.3263 23.4908 97.1138 23.7032 96.866 23.7032H91.4841C91.2363 23.7032 91.0238 23.4908 91.0238 23.2429V9.0094H89.2181C88.9703 9.0094 88.7578 8.79696 88.7578 8.54911V7.4515C88.7578 7.20365 88.9703 6.99121 89.2181 6.99121H91.8736C92.6171 6.99121 93.2545 7.62853 93.2545 8.37207V21.685Z" fill="#101010"/>
<path d="M101.215 21.685H104.827C105.075 21.685 105.287 21.8975 105.287 22.1453V23.2429C105.287 23.4908 105.075 23.7032 104.827 23.7032H99.4451C99.1972 23.7032 98.9848 23.4908 98.9848 23.2429V9.0094H97.179C96.9312 9.0094 96.7188 8.79696 96.7188 8.54911V7.4515C96.7188 7.20365 96.9312 6.99121 97.179 6.99121H99.8345C100.578 6.99121 101.215 7.62853 101.215 8.37207V21.685Z" fill="#101010"/>
<path d="M27.3284 20.3041V3.34421C27.293 1.92794 26.1599 0.794922 24.7437 0.794922H7.1111C3.28717 0.865735 0.242188 3.98153 0.242188 7.80546C0.242188 9.08011 0.596255 10.2131 1.12736 11.1691C1.58765 11.9835 2.29578 12.727 2.96851 13.2935C3.18095 13.4705 3.07473 13.3997 3.67664 13.7538C4.491 14.2495 5.44698 14.4973 5.44698 14.4973V24.6237C5.48239 25.1194 5.5178 25.5797 5.65942 26.0045C6.0489 27.4208 7.04029 28.5184 8.38575 29.0495C8.95225 29.262 9.58958 29.4036 10.2623 29.439L24.3188 29.5098C27.1159 29.5098 29.4174 27.2438 29.4174 24.4112C29.4174 22.7471 28.603 21.2246 27.3284 20.3041Z" fill="#FFEEDA"/>
<path d="M27.6823 24.5177C27.6115 26.3235 26.1244 27.7751 24.3186 27.7751L14.6172 27.7397C15.3961 26.8546 15.8564 25.6861 15.8564 24.4115C15.8564 22.4287 14.688 21.0479 14.688 21.0479H24.354C26.1952 21.0479 27.7177 22.5703 27.7177 24.4115L27.6823 24.5177Z" fill="#EBC28E"/>
<path d="M3.88909 11.8772C2.75607 10.815 1.97712 9.43417 1.97712 7.80546V7.62843C2.08334 4.8667 4.34937 2.60067 7.1111 2.52985H24.7791C25.2394 2.56526 25.5934 2.88392 25.5934 3.34421V18.3213C25.9829 18.3921 26.1954 18.4629 26.5848 18.5691C26.9035 18.6753 27.3284 18.9232 27.3284 18.9232V3.34421C27.293 1.92794 26.1599 0.794922 24.7437 0.794922H7.1111C3.28717 0.865735 0.242188 3.98153 0.242188 7.80546C0.242188 10.0361 1.26898 11.9481 2.8977 13.2581C3.00392 13.3643 3.11014 13.4705 3.4288 13.4705C3.9599 13.4705 4.31397 13.0457 4.27856 12.6208C4.27856 12.2313 4.13693 12.0897 3.88909 11.8772Z" fill="#101010"/>
<path d="M24.3205 19.3129H10.4764C9.55586 19.3129 8.81231 20.0565 8.81231 21.0124V22.9952C8.84772 23.9158 9.62667 24.6948 10.5472 24.6948H11.574V22.9952H10.5472V21.0479C10.5472 21.0479 10.7951 21.0479 11.1138 21.0479C12.8487 21.0479 14.1587 22.6766 14.1587 24.4115C14.1587 25.9694 12.7425 27.9168 10.4056 27.7751C8.31662 27.6335 7.1836 25.7924 7.1836 24.4115V7.52247C7.1836 6.77892 6.54628 6.1416 5.80274 6.1416H4.42188V7.87653H5.44867V24.4469C5.37786 27.8105 7.85633 29.5101 10.4056 29.5101L24.3559 29.5455C27.153 29.5455 29.4545 27.2794 29.4545 24.4469C29.4191 21.6144 27.153 19.3129 24.3205 19.3129ZM27.6841 24.5177C27.6133 26.3235 26.1262 27.7751 24.3205 27.7751L14.619 27.7397C15.398 26.8546 15.8583 25.6861 15.8583 24.4115C15.8583 22.4287 14.6898 21.0479 14.6898 21.0479H24.3559C26.197 21.0479 27.7195 22.5703 27.7195 24.4115L27.6841 24.5177Z" fill="#101010"/>
<path d="M20.6012 8.15949H10.1562V6.45996H20.6012C21.0615 6.45996 21.451 6.84944 21.451 7.30972C21.451 7.77001 21.0969 8.15949 20.6012 8.15949Z" fill="#101010"/>
<path d="M20.6012 16.3033H10.1562V14.5684H20.6012C21.0615 14.5684 21.451 14.9578 21.451 15.4181C21.451 15.9138 21.0969 16.3033 20.6012 16.3033Z" fill="#101010"/>
<path d="M22.4424 12.231H10.1562V10.4961H22.4424C22.9027 10.4961 23.2922 10.8856 23.2922 11.3459C23.2922 11.8416 22.9027 12.231 22.4424 12.231Z" fill="#101010"/>
</g>
<defs>
<clipPath id="clip0_9988_14140">
<rect width="105.016" height="28.7149" fill="white" transform="translate(0.25 0.793945)"/>
</clipPath>
</defs>
</svg>
