<svg width="143" height="35" viewBox="0 0 143 35" fill="none" xmlns="http://www.w3.org/2000/svg">
<path d="M50.883 17.496H42.3859V21.9938H52.0697V25.1387H38.8138V7.64607H51.6425V10.7435H42.3859V14.458H50.883V17.496ZM66.6558 7.64607V10.7435H61.4222V25.1387H57.7433V10.7435H52.486V7.64607H66.6558ZM78.2631 25.1387V17.3299H71.4274V25.1387H67.8078V7.64607H71.4274V14.3156H78.2631V7.64607H81.8945V25.1387H78.2631ZM105.714 25.1387H101.015L95.6152 17.496L93.8706 19.288V25.1387H90.2748V7.64607H93.8706V14.8496L100.623 7.64607H105.346L98.1785 14.8496L105.714 25.1387ZM106.522 7.64607H110.154V25.1387H106.522V7.64607ZM120.028 18.8489H116.314V25.1387H112.682V7.64607H120.301C122.058 7.64607 123.458 8.09703 124.502 8.99896C125.547 9.90088 126.069 11.2973 126.069 13.1882C126.069 15.2531 125.547 16.7128 124.502 17.5672C123.458 18.4217 121.967 18.8489 120.028 18.8489ZM121.737 15.2056C122.212 14.7863 122.449 14.1217 122.449 13.2119C122.449 12.3021 122.208 11.6533 121.725 11.2656C121.251 10.878 120.582 10.6841 119.72 10.6841H116.314V15.8346H119.72C120.582 15.8346 121.255 15.6249 121.737 15.2056ZM138.186 18.398V7.64607H141.901V18.398C141.901 20.2572 141.612 21.705 141.035 22.7414C139.959 24.6402 137.906 25.5896 134.875 25.5896C131.845 25.5896 129.788 24.6402 128.704 22.7414C128.127 21.705 127.838 20.2572 127.838 18.398V7.64607H131.553V18.398C131.553 19.6005 131.695 20.4787 131.98 21.0325C132.423 22.0136 133.388 22.5041 134.875 22.5041C136.355 22.5041 137.316 22.0136 137.759 21.0325C138.044 20.4787 138.186 19.6005 138.186 18.398Z" fill="#828EFF"/>
<circle cx="86.0881" cy="17.4865" r="1.94748" fill="#828EFF"/>
<path fill-rule="evenodd" clip-rule="evenodd" d="M33.9076 15.9359C34.5829 16.6113 34.5829 17.7062 33.9076 18.3816L18.4859 33.8032C17.8106 34.4785 16.7157 34.4785 16.0403 33.8032L0.618698 18.3816C-0.0566444 17.7062 -0.0566483 16.6113 0.618694 15.9359L16.0403 0.514322C16.7157 -0.161022 17.8106 -0.161025 18.4859 0.514319L33.9076 15.9359ZM26.1096 10.9062L17.3392 2.13585C17.2789 2.07556 17.1811 2.07555 17.1208 2.13585L12.5313 6.72537C13.2416 6.64134 13.9287 6.69898 14.6283 6.9266C15.6624 7.26304 16.6781 7.95719 17.8146 9.01054C17.8877 9.05615 17.9568 9.11073 18.0204 9.17428L25.2872 16.4411C25.3041 16.458 25.3205 16.4754 25.3362 16.4932C25.9866 15.7069 26.4359 14.9809 26.6732 14.2829C27.0416 13.1986 26.9138 12.1351 26.0887 10.9204L26.1096 10.9062ZM27.8345 12.6311L32.3002 17.0969C32.3605 17.1572 32.3605 17.2549 32.3002 17.3152L23.6082 26.0072C21.9868 26.6547 20.7547 26.6963 19.5895 26.2586C19.065 26.0616 18.5423 25.7636 17.9963 25.3617L18.005 25.3534L18.0204 25.3383L25.2872 18.0715C25.3434 18.0152 25.3927 17.9545 25.4349 17.8906C26.4789 16.771 27.2477 15.6954 27.6185 14.6041C27.8432 13.9431 27.9181 13.2883 27.8345 12.6311ZM23.9013 18.0453L21.9894 19.9572V14.5554L24.5811 17.1471C24.6223 17.1883 24.6354 17.2471 24.6202 17.2994C24.3941 17.539 24.1516 17.7844 23.8929 18.0366L23.9013 18.0453ZM17.1319 24.659L17.0983 24.6292L17.0496 24.5859L14.5117 22.048H19.8986L17.3143 24.6322C17.2649 24.6816 17.1904 24.6906 17.1319 24.659ZM19.2517 27.158C18.3885 26.8338 17.5617 26.2912 16.7083 25.5638C16.5932 25.5088 16.4853 25.4336 16.3899 25.3383L9.12316 18.0715C9.11019 18.0585 9.09759 18.0453 9.08536 18.0319C8.724 18.4913 8.43784 18.9306 8.22148 19.3726C7.70963 20.418 7.57319 21.5128 7.83802 22.9934L17.1208 32.2762C17.1811 32.3365 17.2789 32.3365 17.3392 32.2762L22.1992 27.4162C21.1525 27.5967 20.1935 27.5117 19.2517 27.158ZM9.79221 17.2064C9.909 17.0793 10.031 16.9499 10.1584 16.8179L10.9101 16.0662C11.0334 15.9465 11.1604 15.8246 11.2915 15.7L11.2841 15.6922L12.5859 14.3904V20.1222L9.8292 17.3654C9.78619 17.3224 9.77386 17.2604 9.79221 17.2064ZM7.3586 18.9501C7.71811 18.2158 8.2338 17.5086 8.89418 16.7669C8.94944 16.6489 9.02576 16.5385 9.12316 16.4411L16.3899 9.17428C16.405 9.15918 16.4205 9.14459 16.4362 9.1305C15.6563 8.49116 14.9737 8.089 14.3194 7.8761C13.3528 7.56162 12.3862 7.64129 11.151 8.10565L2.15983 17.0969C2.09954 17.1572 2.09954 17.2549 2.15983 17.3152L6.75076 21.9061C6.70934 20.8234 6.90569 19.8752 7.3586 18.9501ZM17.8653 10.4313L17.8552 10.4413C17.6424 10.2262 17.4371 10.0256 17.2383 9.83869C17.1886 9.82782 17.1346 9.84169 17.096 9.88032L14.3318 12.6445H20.0785L17.8653 10.4313ZM33.0062 18.0212C33.4565 17.571 33.4565 16.841 33.0062 16.3908L18.0452 1.4298C17.595 0.979576 16.865 0.979577 16.4148 1.42981L1.45379 16.3908C1.00356 16.841 1.00356 17.571 1.45379 18.0212L16.4148 32.9823C16.865 33.4325 17.595 33.4325 18.0452 32.9823L33.0062 18.0212ZM14.1231 13.6052H20.4522C20.7706 13.6052 21.0287 13.8633 21.0287 14.1817V20.5108C21.0287 20.8292 20.7706 21.0872 20.4522 21.0872H14.1231C13.8047 21.0872 13.5467 20.8292 13.5467 20.5108V14.1817C13.5467 13.8633 13.8047 13.6052 14.1231 13.6052ZM14.3379 14.7594C14.3379 14.5471 14.5099 14.3751 14.7222 14.3751H19.9686C20.1808 14.3751 20.3529 14.5471 20.3529 14.7594V20.0058C20.3529 20.218 20.1808 20.3901 19.9686 20.3901H14.7222C14.5099 20.3901 14.3379 20.218 14.3379 20.0058V14.7594Z" fill="#828EFF"/>
<path d="M15.5119 15.3779C15.419 15.3779 15.3438 15.4532 15.3438 15.546L15.3438 19.2198C15.3438 19.3127 15.419 19.3879 15.5119 19.3879L19.1857 19.3879C19.2785 19.3879 19.3538 19.3127 19.3538 19.2198L19.3538 15.546C19.3538 15.4532 19.2785 15.3779 19.1857 15.3779L15.5119 15.3779Z" fill="#CFB1FB"/>
</svg>
